<svg xmlns="http://www.w3.org/2000/svg" version="1.1" xmlns:xlink="http://www.w3.org/1999/xlink" xmlns:svgjs="http://svgjs.dev/svgjs" width="1500" height="1500" viewBox="0 0 1500 1500"><rect width="1500" height="1500" fill="#ffffff"></rect><g transform="matrix(0.6666666666666666,0,0,0.6666666666666666,249.39393939393938,438.5856982366378)"><svg viewBox="0 0 396 247" data-background-color="#ffffff" preserveAspectRatio="xMidYMid meet" height="935" width="1500" xmlns="http://www.w3.org/2000/svg" xmlns:xlink="http://www.w3.org/1999/xlink"><g id="tight-bounds" transform="matrix(1,0,0,1,0.2400000000000091,-0.10000127986555185)"><svg viewBox="0 0 395.52 247.2" height="247.2" width="395.52"><g><svg></svg></g><g><svg viewBox="0 0 395.52 247.2" height="247.2" width="395.52"><mask id="928f0b93-b22a-4d5d-b8ff-07cf98f556cc"><rect width="395.52" height="247.2" fill="white"></rect><g transform="matrix(1,0,0,1,50.97685985247628,37.08)" id="clone"><svg viewBox="0 0 293.5662802950474 173.04" height="173.04" width="293.5662802950474"><g><svg viewBox="0 0 293.5662802950474 173.04" height="173.04" width="293.5662802950474"><g><svg viewBox="0 0 293.5662802950474 173.04" height="173.04" width="293.5662802950474"><g><svg viewBox="0 0 293.5662802950474 173.04" height="173.04" width="293.5662802950474"><g id="SvgjsG1346"><svg viewBox="0 0 293.5662802950474 173.04" height="173.04" width="293.5662802950474" id="SvgjsSvg1345"><g><svg viewBox="0 0 293.5662802950474 173.04" height="173.04" width="293.5662802950474"><g transform="matrix(1,0,0,1,0,0)"><svg width="293.5662802950474" viewBox="-1.9 -39.5 81.5 48.45" height="173.04" data-palette-color="#000000"><path d="M28.2 5.95L28.2 5.95 3.4 5.95Q2.2 5.95 1.65 5.4 1.1 4.85 1.1 3.65L1.1 3.65 1.1-3.05Q1.1-4.15 1.43-4.93 1.75-5.7 2.45-6.45L2.45-6.45 13.95-20.4 4.3-20.4Q3.1-20.4 2.55-20.95 2-21.5 2-22.7L2-22.7 2-28.75Q2-29.4 2.18-29.85 2.35-30.3 2.7-30.6L2.7-30.6 9.15-36.05Q9.4-36.25 9.83-36.38 10.25-36.5 10.75-36.5L10.75-36.5 33.75-36.5Q34.95-36.5 35.5-35.95 36.05-35.4 36.05-34.2L36.05-34.2 36.05-26.75Q36.05-25.65 35.73-24.85 35.4-24.05 34.7-23.3L34.7-23.3 23.75-10.05 34.65-10.05Q35.85-10.05 36.4-9.5 36.95-8.95 36.95-7.75L36.95-7.75 36.95-1.8Q36.95-1.15 36.77-0.7 36.6-0.25 36.25 0.05L36.25 0.05 29.75 5.45Q29.55 5.65 29.13 5.8 28.7 5.95 28.2 5.95ZM9.85 0L34.65 0Q35.6 0 36.02-0.43 36.45-0.85 36.45-1.8L36.45-1.8 36.45-7.75Q36.45-8.7 36.02-9.13 35.6-9.55 34.65-9.55L34.65-9.55 22.7-9.55 34.3-23.6Q34.95-24.3 35.25-25.03 35.55-25.75 35.55-26.75L35.55-26.75 35.55-34.2Q35.55-35.15 35.13-35.58 34.7-36 33.75-36L33.75-36 10.75-36Q9.8-36 9.38-35.58 8.95-35.15 8.95-34.2L8.95-34.2 8.95-28.15Q8.95-27.2 9.38-26.78 9.8-26.35 10.75-26.35L10.75-26.35 21.45-26.35 9.3-11.6Q8.65-10.9 8.35-10.18 8.05-9.45 8.05-8.5L8.05-8.5 8.05-1.8Q8.05-0.85 8.47-0.43 8.9 0 9.85 0L9.85 0ZM29.4-27.2L29.4-27.2 14.75-8.4Q14.4-7.95 14.23-7.65 14.05-7.35 14.05-6.85L14.05-6.85 14.05-6.15Q14.05-5.45 14.38-5.23 14.7-5 15.1-5L15.1-5 31.95-5 31.95-4.5 15.1-4.5Q14.3-4.5 13.93-4.9 13.55-5.3 13.55-6.15L13.55-6.15 13.55-6.95Q13.55-7.5 13.8-7.93 14.05-8.35 14.4-8.8L14.4-8.8 29.05-27.6Q29.4-28.05 29.58-28.35 29.75-28.65 29.75-29.15L29.75-29.15 29.75-29.85Q29.75-30.55 29.43-30.78 29.1-31 28.7-31L28.7-31 13.45-31 13.45-31.5 28.7-31.5Q29.5-31.5 29.88-31.1 30.25-30.7 30.25-29.85L30.25-29.85 30.25-29.05Q30.25-28.5 30-28.08 29.75-27.65 29.4-27.2ZM50.3 5.95L50.3 5.95 42.55 5.95Q41.35 5.95 40.8 5.4 40.25 4.85 40.25 3.65L40.25 3.65 40.25-28.75Q40.25-29.4 40.42-29.85 40.6-30.3 40.95-30.6L40.95-30.6 47.4-36.05Q47.65-36.25 48.07-36.38 48.5-36.5 49-36.5L49-36.5 64.3-36.5Q67.85-36.5 70.25-35.75 72.65-35 74.05-33.65 75.45-32.3 76.02-30.4 76.6-28.5 76.6-26.25L76.6-26.25 76.6-19.85Q76.6-17.45 75.92-15.48 75.25-13.5 73.6-12.1L73.6-12.1 67.1-6.7Q65.85-5.65 63.87-4.98 61.9-4.3 59.05-4.2L59.05-4.2 59.05-1.8Q59.05-1.15 58.87-0.7 58.7-0.25 58.35 0.05L58.35 0.05 51.85 5.45Q51.65 5.65 51.22 5.8 50.8 5.95 50.3 5.95ZM49 0L56.75 0Q57.7 0 58.12-0.43 58.55-0.85 58.55-1.8L58.55-1.8 58.55-10.1 64.3-10.1Q71.1-10.1 73.6-12.8 76.1-15.5 76.1-19.85L76.1-19.85 76.1-26.25Q76.1-30.6 73.6-33.3 71.1-36 64.3-36L64.3-36 49-36Q48.05-36 47.62-35.58 47.2-35.15 47.2-34.2L47.2-34.2 47.2-1.8Q47.2-0.85 47.62-0.43 48.05 0 49 0L49 0ZM63.6-14.35L63.6-14.35 53.3-14.35 53.3-4.5 52.8-4.5 52.8-31.5 63.6-31.5Q65.95-31.5 67.42-30.98 68.9-30.45 69.7-29.55 70.5-28.65 70.8-27.4 71.1-26.15 71.1-24.7L71.1-24.7 71.1-21Q71.1-19.55 70.8-18.32 70.5-17.1 69.7-16.23 68.9-15.35 67.42-14.85 65.95-14.35 63.6-14.35ZM53.3-31L53.3-14.85 63.6-14.85Q65.8-14.85 67.17-15.3 68.55-15.75 69.3-16.57 70.05-17.4 70.32-18.53 70.6-19.65 70.6-21L70.6-21 70.6-24.7Q70.6-26.05 70.32-27.2 70.05-28.35 69.3-29.2 68.55-30.05 67.17-30.53 65.8-31 63.6-31L63.6-31 53.3-31ZM58.45-19.1L58.45-26.65 62.95-26.65Q64.4-26.65 64.85-25.9 65.3-25.15 65.3-24.2L65.3-24.2 65.3-21.55Q65.3-20.6 64.85-19.85 64.4-19.1 62.95-19.1L62.95-19.1 58.45-19.1Z" opacity="1" transform="matrix(1,0,0,1,0,0)" fill="black" class="wordmark-text-0" id="SvgjsPath1344" stroke-width="5" stroke="black" stroke-linejoin="round"></path></svg></g></svg></g></svg></g></svg></g><g></g></svg></g></svg></g></svg></g></mask><g mask="url(#928f0b93-b22a-4d5d-b8ff-07cf98f556cc)"><g><path d="M251.189 247.2v0h-144.418c-4.659 0-8.056-1.068-10.191-3.203-2.135-2.135-3.203-5.532-3.203-10.191v0-39.016c0-4.27 0.641-7.92 1.922-10.948 1.242-2.989 3.222-5.94 5.939-8.851v0l66.969-81.236h-56.195c-4.659 0-8.056-1.068-10.191-3.202-2.135-2.135-3.203-5.532-3.203-10.191v0-35.231c0-2.523 0.349-4.659 1.048-6.406 0.66-1.747 1.669-3.203 3.028-4.367v0l37.561-31.737c0.971-0.776 2.291-1.417 3.96-1.922 1.631-0.466 3.416-0.699 5.357-0.699v0h133.936c4.659 0 8.056 1.068 10.191 3.203 2.135 2.135 3.203 5.532 3.203 10.191v0 43.383c0 4.27-0.621 7.959-1.863 11.065-1.281 3.106-3.28 6.114-5.998 9.026v0l-63.766 77.159h63.474c4.659 0 8.056 1.068 10.191 3.203 2.135 2.135 3.203 5.532 3.203 10.191v-0.001 34.649c0 2.523-0.349 4.659-1.048 6.406-0.66 1.747-1.669 3.203-3.028 4.367v0l-37.852 31.446c-0.776 0.776-1.98 1.456-3.61 2.039-1.669 0.582-3.475 0.874-5.416 0.873zM144.331 212.551h144.418c3.688 0 6.347-0.835 7.978-2.504 1.669-1.631 2.504-4.29 2.504-7.978v0-34.648c0-3.688-0.835-6.367-2.504-8.037-1.631-1.631-4.29-2.446-7.978-2.445v0h-69.588l67.55-81.818c2.523-2.718 4.367-5.493 5.532-8.327 1.165-2.795 1.747-6.134 1.747-10.017v0-43.383c0-3.688-0.815-6.367-2.445-8.037-1.669-1.631-4.348-2.446-8.037-2.445v0h-133.936c-3.688 0-6.347 0.815-7.978 2.445-1.669 1.669-2.504 4.348-2.504 8.037v0 35.231c0 3.688 0.835 6.347 2.504 7.978 1.631 1.669 4.29 2.504 7.978 2.504v0h62.31l-70.754 85.894c-2.523 2.718-4.367 5.474-5.532 8.269-1.165 2.834-1.747 6.095-1.747 9.783v0 39.016c0 3.688 0.815 6.347 2.446 7.978 1.669 1.669 4.348 2.504 8.036 2.504zM258.177 54.157v0l-85.312 109.478c-1.359 1.747-2.368 3.203-3.028 4.368-0.699 1.165-1.048 2.718-1.048 4.658v0 4.077c0 2.718 0.641 4.503 1.922 5.357 1.242 0.893 2.64 1.339 4.192 1.34v0h98.123v2.911h-98.123c-3.106 0-5.377-0.776-6.813-2.329-1.475-1.553-2.213-3.979-2.213-7.279v0-4.659c0-2.135 0.485-4.037 1.456-5.707 0.971-1.631 2.135-3.319 3.494-5.066v0l85.312-109.478c1.359-1.747 2.388-3.203 3.086-4.368 0.66-1.165 0.99-2.718 0.99-4.659v0-4.076c0-2.718-0.621-4.523-1.863-5.416-1.281-0.854-2.698-1.281-4.251-1.281v0h-88.806v-2.911h88.806c3.106 0 5.396 0.776 6.871 2.329 1.436 1.553 2.155 3.979 2.155 7.279v0 4.659c0 2.135-0.485 4.018-1.456 5.648-0.971 1.669-2.135 3.378-3.494 5.125z" fill="#ffffff" fill-rule="nonzero" stroke="none" stroke-width="1" stroke-linecap="butt" stroke-linejoin="miter" stroke-miterlimit="10" stroke-dasharray="" stroke-dashoffset="0" font-family="none" font-weight="none" font-size="none" text-anchor="none" style="mix-blend-mode: normal" data-fill-palette-color="tertiary"></path></g></g><g transform="matrix(1,0,0,1,50.97685985247628,37.08)"><svg viewBox="0 0 293.5662802950474 173.04" height="173.04" width="293.5662802950474"><g><svg viewBox="0 0 293.5662802950474 173.04" height="173.04" width="293.5662802950474"><g><svg viewBox="0 0 293.5662802950474 173.04" height="173.04" width="293.5662802950474"><g><svg viewBox="0 0 293.5662802950474 173.04" height="173.04" width="293.5662802950474"><g id="textblocktransform"><svg viewBox="0 0 293.5662802950474 173.04" height="173.04" width="293.5662802950474" id="textblock"><g><svg viewBox="0 0 293.5662802950474 173.04" height="173.04" width="293.5662802950474"><g transform="matrix(1,0,0,1,0,0)"><svg width="293.5662802950474" viewBox="-1.9 -39.5 81.5 48.45" height="173.04" data-palette-color="#000000"><path d="M28.2 5.95L28.2 5.95 3.4 5.95Q2.2 5.95 1.65 5.4 1.1 4.85 1.1 3.65L1.1 3.65 1.1-3.05Q1.1-4.15 1.43-4.93 1.75-5.7 2.45-6.45L2.45-6.45 13.95-20.4 4.3-20.4Q3.1-20.4 2.55-20.95 2-21.5 2-22.7L2-22.7 2-28.75Q2-29.4 2.18-29.85 2.35-30.3 2.7-30.6L2.7-30.6 9.15-36.05Q9.4-36.25 9.83-36.38 10.25-36.5 10.75-36.5L10.75-36.5 33.75-36.5Q34.95-36.5 35.5-35.95 36.05-35.4 36.05-34.2L36.05-34.2 36.05-26.75Q36.05-25.65 35.73-24.85 35.4-24.05 34.7-23.3L34.7-23.3 23.75-10.05 34.65-10.05Q35.85-10.05 36.4-9.5 36.95-8.95 36.95-7.75L36.95-7.75 36.95-1.8Q36.95-1.15 36.77-0.7 36.6-0.25 36.25 0.05L36.25 0.05 29.75 5.45Q29.55 5.65 29.13 5.8 28.7 5.95 28.2 5.95ZM9.85 0L34.65 0Q35.6 0 36.02-0.43 36.45-0.85 36.45-1.8L36.45-1.8 36.45-7.75Q36.45-8.7 36.02-9.13 35.6-9.55 34.65-9.55L34.65-9.55 22.7-9.55 34.3-23.6Q34.95-24.3 35.25-25.03 35.55-25.75 35.55-26.75L35.55-26.75 35.55-34.2Q35.55-35.15 35.13-35.58 34.7-36 33.75-36L33.75-36 10.75-36Q9.8-36 9.38-35.58 8.95-35.15 8.95-34.2L8.95-34.2 8.95-28.15Q8.95-27.2 9.38-26.78 9.8-26.35 10.75-26.35L10.75-26.35 21.45-26.35 9.3-11.6Q8.65-10.9 8.35-10.18 8.05-9.45 8.05-8.5L8.05-8.5 8.05-1.8Q8.05-0.85 8.47-0.43 8.9 0 9.85 0L9.85 0ZM29.4-27.2L29.4-27.2 14.75-8.4Q14.4-7.95 14.23-7.65 14.05-7.35 14.05-6.85L14.05-6.85 14.05-6.15Q14.05-5.45 14.38-5.23 14.7-5 15.1-5L15.1-5 31.95-5 31.95-4.5 15.1-4.5Q14.3-4.5 13.93-4.9 13.55-5.3 13.55-6.15L13.55-6.15 13.55-6.95Q13.55-7.5 13.8-7.93 14.05-8.35 14.4-8.8L14.4-8.8 29.05-27.6Q29.4-28.05 29.58-28.35 29.75-28.65 29.75-29.15L29.75-29.15 29.75-29.85Q29.75-30.55 29.43-30.78 29.1-31 28.7-31L28.7-31 13.45-31 13.45-31.5 28.7-31.5Q29.5-31.5 29.88-31.1 30.25-30.7 30.25-29.85L30.25-29.85 30.25-29.05Q30.25-28.5 30-28.08 29.75-27.65 29.4-27.2ZM50.3 5.95L50.3 5.95 42.55 5.95Q41.35 5.95 40.8 5.4 40.25 4.85 40.25 3.65L40.25 3.65 40.25-28.75Q40.25-29.4 40.42-29.85 40.6-30.3 40.95-30.6L40.95-30.6 47.4-36.05Q47.65-36.25 48.07-36.38 48.5-36.5 49-36.5L49-36.5 64.3-36.5Q67.85-36.5 70.25-35.75 72.65-35 74.05-33.65 75.45-32.3 76.02-30.4 76.6-28.5 76.6-26.25L76.6-26.25 76.6-19.85Q76.6-17.45 75.92-15.48 75.25-13.5 73.6-12.1L73.6-12.1 67.1-6.7Q65.85-5.65 63.87-4.98 61.9-4.3 59.05-4.2L59.05-4.2 59.05-1.8Q59.05-1.15 58.87-0.7 58.7-0.25 58.35 0.05L58.35 0.05 51.85 5.45Q51.65 5.65 51.22 5.8 50.8 5.95 50.3 5.95ZM49 0L56.75 0Q57.7 0 58.12-0.43 58.55-0.85 58.55-1.8L58.55-1.8 58.55-10.1 64.3-10.1Q71.1-10.1 73.6-12.8 76.1-15.5 76.1-19.85L76.1-19.85 76.1-26.25Q76.1-30.6 73.6-33.3 71.1-36 64.3-36L64.3-36 49-36Q48.05-36 47.62-35.58 47.2-35.15 47.2-34.2L47.2-34.2 47.2-1.8Q47.2-0.85 47.62-0.43 48.05 0 49 0L49 0ZM63.6-14.35L63.6-14.35 53.3-14.35 53.3-4.5 52.8-4.5 52.8-31.5 63.6-31.5Q65.95-31.5 67.42-30.98 68.9-30.45 69.7-29.55 70.5-28.65 70.8-27.4 71.1-26.15 71.1-24.7L71.1-24.7 71.1-21Q71.1-19.55 70.8-18.32 70.5-17.1 69.7-16.23 68.9-15.35 67.42-14.85 65.95-14.35 63.6-14.35ZM53.3-31L53.3-14.85 63.6-14.85Q65.8-14.85 67.17-15.3 68.55-15.75 69.3-16.57 70.05-17.4 70.32-18.53 70.6-19.65 70.6-21L70.6-21 70.6-24.7Q70.6-26.05 70.32-27.2 70.05-28.35 69.3-29.2 68.55-30.05 67.17-30.53 65.8-31 63.6-31L63.6-31 53.3-31ZM58.45-19.1L58.45-26.65 62.95-26.65Q64.4-26.65 64.85-25.9 65.3-25.15 65.3-24.2L65.3-24.2 65.3-21.55Q65.3-20.6 64.85-19.85 64.4-19.1 62.95-19.1L62.95-19.1 58.45-19.1Z" opacity="1" transform="matrix(1,0,0,1,0,0)" fill="#000000" class="wordmark-text-0" data-fill-palette-color="primary" id="text-0"></path></svg></g></svg></g></svg></g></svg></g><g></g></svg></g></svg></g></svg></g></svg></g><defs></defs></svg><rect width="395.52" height="247.2" fill="none" stroke="none" visibility="hidden"></rect></g></svg></g></svg>