<svg xmlns="http://www.w3.org/2000/svg" version="1.1" xmlns:xlink="http://www.w3.org/1999/xlink" xmlns:svgjs="http://svgjs.dev/svgjs" width="1500" height="935" viewBox="0 0 1500 935"><g transform="matrix(1,0,0,1,-0.9090909090909918,0.3785425101214628)"><svg viewBox="0 0 396 247" data-background-color="#000000" preserveAspectRatio="xMidYMid meet" height="935" width="1500" xmlns="http://www.w3.org/2000/svg" xmlns:xlink="http://www.w3.org/1999/xlink"><g id="tight-bounds" transform="matrix(1,0,0,1,0.2400000000000091,-0.09999999999999432)"><svg viewBox="0 0 395.52 247.2" height="247.2" width="395.52"><g><svg viewBox="0 0 395.52 247.2" height="247.2" width="395.52"><g transform="matrix(1,0,0,1,41.08976588628761,0)"><svg viewBox="0 0 313.34046822742476 247.2" height="247.2" width="313.34046822742476"><g><svg viewBox="0 0 313.34046822742476 247.2" height="247.2" width="313.34046822742476"><g><svg viewBox="0 0 313.34046822742476 247.2" height="247.2" width="313.34046822742476"><g><svg viewBox="0 0 313.34046822742476 247.2" height="247.2" width="313.34046822742476"><g id="textblocktransform"><svg viewBox="0 0 313.34046822742476 247.2" height="247.2" width="313.34046822742476" id="textblock"><g><svg viewBox="0 0 313.34046822742476 247.2" height="247.2" width="313.34046822742476"><g transform="matrix(1,0,0,1,0,0)"><svg width="313.34046822742476" viewBox="-4.45 -40.2 57.85 45.85" height="247.2" data-palette-color="#fffdfd"><path d="M24-25.45Q22.4-22.7 20.55-20 18.7-17.3 15.5-12.75L15.5-12.75 12.35-8.3Q14.55-8.5 18.1-8.5L18.1-8.5 20.8-8.5 21.85-8.55Q22.25-8.55 22.5-8.35 22.75-8.15 22.85-7.5L22.85-7.5 23.7-7.5Q23.95-6 23.95-4.1L23.95-4.1Q23.95-3.1 23.85-1.63 23.75-0.15 23.7 0.5L23.7 0.5 23.6 1.65Q17.4 1.3 12.2 1.3L12.2 1.3Q6.4 1.3 2.4 1.55L2.4 1.55Q2.2 1.05 2.1 0.5L2.1 0.5Q1.55 0.5 1.4 0.55L1.4 0.55Q0.75-1.1 0.75-3.25L0.75-3.25 0.8-4.7Q0.85-5.2 0.85-6.15L0.85-6.15Q0.85-6.8 0.75-8L0.75-8Q2.35-11.65 4.7-15.2 7.05-18.75 10.9-24.05L10.9-24.05 12-25.5Q9.65-25.7 6.85-25.8 4.05-25.9 2.15-25.9L2.15-25.9Q2.05-26.1 1.95-26.4 1.85-26.7 1.75-26.9L1.75-26.9 1.15-26.9Q0.65-27.75 0.65-29.8L0.65-29.8Q0.65-31.95 0.5-33.02 0.35-34.1-0.45-34.9L-0.45-34.9Q5-35.4 10-35.4L10-35.4Q12-35.4 16.2-35.3L16.2-35.3Q20.6-35.2 23-35.2L23-35.2 23.1-34.2 24-34.2Q24.15-33.05 24.15-31.45L24.15-31.45Q24.15-29.6 24.1-28.65L24.1-28.65 24.1-28.7Q24.05-27.7 24.05-25.75L24.05-25.75 24-25.45ZM22.55-26.75L22.6-29.4Q22.7-31.3 22.7-32.25L22.7-32.25Q22.7-33.5 22.55-34.7L22.55-34.7Q20.3-34.7 16.1-34.8L16.1-34.8 9.9-34.85Q7.55-34.85 5.1-34.8 2.65-34.75 0.65-34.5L0.65-34.5 0.75-34.3 0.75-34.25Q1.05-33.25 1.05-31.3L1.05-31.3 1.05-30.2Q1.05-28.1 1.45-27.4L1.45-27.4Q3.6-27.4 7.5-27.2 11.4-27 13.5-26.75L13.5-26.75 11.1-23.4Q7.55-18.5 5.2-14.95 2.85-11.4 1.25-7.95L1.25-7.95Q1.3-7.4 1.3-6.3L1.3-6.3 1.25-3.35Q1.25-1.3 1.7 0.05L1.7 0.05Q7.05-0.2 11.2-0.2L11.2-0.2Q16.9-0.2 22.15 0.1L22.15 0.1 22.15 0Q22.4-2.6 22.4-5.05L22.4-5.05Q22.4-6.6 22.25-8L22.25-8 22.25-8.15Q20.6-8.05 19.48-8.05 18.35-8.05 17.6-8L17.6-8Q15.8-8 13.9-7.9 12-7.8 9.65-7.5L9.65-7.5 9.7-7.55Q11.7-10.65 14.85-15.05L14.85-15.05Q20.1-22.55 22.55-26.7L22.55-26.7 22.55-26.75ZM49.4-23.5Q49.4-20.3 47.65-17.53 45.9-14.75 43.02-13.13 40.15-11.5 37-11.5L37-11.5Q36.15-11.5 35.75-11.55L35.75-11.55 35.75-9.45Q35.75-4.65 35.9 0.95L35.9 0.95Q35.4 0.95 34.5 1.1L34.5 1.1Q34.15 1.15 32.97 1.28 31.8 1.4 30.75 1.4L30.75 1.4Q28.5 1.4 26.4 1.15L26.4 1.15Q26.4 0.45 26.2 0.3 26 0.15 25.4 0.15L25.4 0.15Q25.2-4.7 25.2-16.95L25.2-16.95 25.2-23Q25.2-31.4 25.05-35.15L25.05-35.15Q28.85-36.2 32.85-36.2L32.85-36.2Q37-36.2 40.67-34.83 44.35-33.45 46.75-30.6 49.15-27.75 49.4-23.55L49.4-23.55 49.4-23.5ZM47.9-24.55Q47.6-30.35 43.25-33.02 38.9-35.7 32.8-35.7L32.8-35.7Q29.25-35.7 25.55-34.75L25.55-34.75Q25.75-29.15 25.75-17L25.75-17 25.75-8.2Q25.75-4 25.9-0.3L25.9-0.3Q27.25-0.1 29.75-0.1L29.75-0.1Q33.05-0.1 34.25-0.5L34.25-0.5 34.4-0.6Q34.25-5.45 34.25-9.8L34.25-9.8 34.25-11.75Q34.25-12.7 34.2-13.15L34.2-13.15Q35.1-13 36-13L36-13Q38.8-13 41.57-14.45 44.35-15.9 46.12-18.4 47.9-20.9 47.9-23.8L47.9-23.8 47.9-24.55ZM40.7-23.75Q40.7-21.55 39.02-20.95 37.35-20.35 34.55-20.3L34.55-20.3 33.45-20.25 33.3-20.25Q32.9-21.5 32.9-24.35L32.9-24.35Q32.9-26.7 32.85-27.75L32.85-27.75Q33.15-28.05 34.95-28.05L34.95-28.05Q37.45-28.05 39.15-26.65L39.15-26.65Q39.9-26.2 40.3-25.43 40.7-24.65 40.7-23.75L40.7-23.75ZM35.95-26.55Q35-26.55 34.35-26.35L34.35-26.35Q34.4-25.6 34.4-24.2L34.4-24.2 34.4-22.75 34.4-21.9Q34.4-21.15 34.5-20.8L34.5-20.8 34.75-20.8Q37.15-20.8 38.67-21.38 40.2-21.95 40.2-23.8L40.2-23.8Q40.2-25.25 38.9-25.9 37.6-26.55 35.95-26.55L35.95-26.55Z" opacity="1" transform="matrix(1,0,0,1,0,0)" fill="#fffdfd" class="wordmark-text-0" data-fill-palette-color="primary" id="text-0"></path></svg></g></svg></g></svg></g></svg></g></svg></g></svg></g></svg></g></svg></g><defs></defs></svg><rect width="395.52" height="247.2" fill="none" stroke="none" visibility="hidden"></rect></g></svg></g></svg>